<svg viewBox="0 0 73 93" xmlns="http://www.w3.org/2000/svg" xmlns:xlink="http://www.w3.org/1999/xlink" width="73.000000" height="93.000000" fill="none">
	<rect id="Vector-1" width="93.000000" height="73.000000" x="0.000000" y="0.000000" fill="rgb(255,255,255)" fill-opacity="0" transform="matrix(1.80411e-16,-1,1,1.80411e-16,0,93)" />
	<path id="Vector" d="M2.96809 1.5C2.96809 2.32843 2.30366 3 1.48404 3C0.664428 3 0 2.32843 0 1.5C0 0.671573 0.664428 0 1.48404 0C2.30366 0 2.96809 0.671573 2.96809 1.5Z" fill="rgb(255,255,255)" fill-rule="nonzero" transform="matrix(1.80411e-16,-1,1,1.80411e-16,0,93)" />
	<path id="Vector" d="M2.9681 1.5C2.9681 2.32843 2.3037 3 1.484 3C0.6644 3 0 2.32843 0 1.5C0 0.671573 0.6644 0 1.484 0C2.3037 0 2.9681 0.671573 2.9681 1.5Z" fill="rgb(255,255,255)" fill-rule="nonzero" transform="matrix(1.80411e-16,-1,1,1.80411e-16,0,80.1383)" />
	<path id="Vector" d="M2.9681 1.5C2.9681 2.32843 2.3037 3 1.484 3C0.664399 3 0 2.32843 0 1.5C0 0.671573 0.664399 0 1.484 0C2.3037 0 2.9681 0.671573 2.9681 1.5Z" fill="rgb(255,255,255)" fill-rule="nonzero" transform="matrix(1.80411e-16,-1,1,1.80411e-16,0,67.2766)" />
	<path id="Vector" d="M2.9681 1.5C2.9681 2.32843 2.3037 3 1.484 3C0.664401 3 0 2.32843 0 1.5C0 0.671573 0.664401 0 1.484 0C2.3037 0 2.9681 0.671573 2.9681 1.5Z" fill="rgb(255,255,255)" fill-rule="nonzero" transform="matrix(1.80411e-16,-1,1,1.80411e-16,0,54.4149)" />
	<path id="Vector" d="M2.9681 1.5C2.9681 2.32843 2.3037 3 1.4841 3C0.6644 3 0 2.32843 0 1.5C0 0.671573 0.6644 0 1.4841 0C2.3037 0 2.9681 0.671573 2.9681 1.5Z" fill="rgb(255,255,255)" fill-rule="nonzero" transform="matrix(1.80411e-16,-1,1,1.80411e-16,0,41.5532)" />
	<path id="Vector" d="M2.9681 1.5C2.9681 2.32843 2.3037 3 1.4841 3C0.6644 3 0 2.32843 0 1.5C0 0.671573 0.6644 0 1.4841 0C2.3037 0 2.9681 0.671573 2.9681 1.5Z" fill="rgb(255,255,255)" fill-rule="nonzero" transform="matrix(1.80411e-16,-1,1,1.80411e-16,0,28.6915)" />
	<path id="Vector" d="M2.9681 1.5C2.9681 2.32843 2.3037 3 1.4841 3C0.6644 3 0 2.32843 0 1.5C0 0.671573 0.6644 0 1.4841 0C2.3037 0 2.9681 0.671573 2.9681 1.5Z" fill="rgb(255,255,255)" fill-rule="nonzero" transform="matrix(1.80411e-16,-1,1,1.80411e-16,0,15.8298)" />
	<path id="Vector" d="M2.9681 1.5C2.9681 2.32843 2.3037 3 1.4841 3C0.6644 3 0 2.32843 0 1.5C0 0.671573 0.6644 0 1.4841 0C2.3037 0 2.9681 0.671573 2.9681 1.5Z" fill="rgb(255,255,255)" fill-rule="nonzero" transform="matrix(1.80411e-16,-1,1,1.80411e-16,0,2.96814)" />
	<path id="Vector" d="M2.96809 1.5C2.96809 2.3284 2.30366 3 1.48404 3C0.664428 3 0 2.3284 0 1.5C0 0.6716 0.664428 0 1.48404 0C2.30366 0 2.96809 0.6716 2.96809 1.5Z" fill="rgb(255,255,255)" fill-rule="nonzero" transform="matrix(1.80411e-16,-1,1,1.80411e-16,10,93)" />
	<path id="Vector" d="M2.9681 1.5C2.9681 2.3284 2.3037 3 1.484 3C0.6644 3 0 2.3284 0 1.5C0 0.6716 0.6644 0 1.484 0C2.3037 0 2.9681 0.6716 2.9681 1.5Z" fill="rgb(255,255,255)" fill-rule="nonzero" transform="matrix(1.80411e-16,-1,1,1.80411e-16,10,80.1383)" />
	<path id="Vector" d="M2.9681 1.5C2.9681 2.3284 2.3037 3 1.484 3C0.664399 3 0 2.3284 0 1.5C0 0.6716 0.664399 0 1.484 0C2.3037 0 2.9681 0.6716 2.9681 1.5Z" fill="rgb(255,255,255)" fill-rule="nonzero" transform="matrix(1.80411e-16,-1,1,1.80411e-16,10,67.2766)" />
	<path id="Vector" d="M2.9681 1.5C2.9681 2.3284 2.3037 3 1.484 3C0.664401 3 0 2.3284 0 1.5C0 0.6716 0.664401 0 1.484 0C2.3037 0 2.9681 0.6716 2.9681 1.5Z" fill="rgb(255,255,255)" fill-rule="nonzero" transform="matrix(1.80411e-16,-1,1,1.80411e-16,10,54.4149)" />
	<path id="Vector" d="M2.9681 1.5C2.9681 2.3284 2.3037 3 1.4841 3C0.6644 3 0 2.3284 0 1.5C0 0.6716 0.6644 0 1.4841 0C2.3037 0 2.9681 0.6716 2.9681 1.5Z" fill="rgb(255,255,255)" fill-rule="nonzero" transform="matrix(1.80411e-16,-1,1,1.80411e-16,10,41.5532)" />
	<path id="Vector" d="M2.9681 1.5C2.9681 2.3284 2.3037 3 1.4841 3C0.6644 3 0 2.3284 0 1.5C0 0.6716 0.6644 0 1.4841 0C2.3037 0 2.9681 0.6716 2.9681 1.5Z" fill="rgb(255,255,255)" fill-rule="nonzero" transform="matrix(1.80411e-16,-1,1,1.80411e-16,10,28.6915)" />
	<path id="Vector" d="M2.9681 1.5C2.9681 2.3284 2.3037 3 1.4841 3C0.6644 3 0 2.3284 0 1.5C0 0.6716 0.6644 0 1.4841 0C2.3037 0 2.9681 0.6716 2.9681 1.5Z" fill="rgb(255,255,255)" fill-rule="nonzero" transform="matrix(1.80411e-16,-1,1,1.80411e-16,10,15.8298)" />
	<path id="Vector" d="M2.9681 1.5C2.9681 2.3284 2.3037 3 1.4841 3C0.6644 3 0 2.3284 0 1.5C0 0.6716 0.6644 0 1.4841 0C2.3037 0 2.9681 0.6716 2.9681 1.5Z" fill="rgb(255,255,255)" fill-rule="nonzero" transform="matrix(1.80411e-16,-1,1,1.80411e-16,10,2.96814)" />
	<path id="Vector" d="M2.96809 1.5C2.96809 2.3284 2.30366 3 1.48404 3C0.664428 3 0 2.3284 0 1.5C0 0.6716 0.664428 0 1.48404 0C2.30366 0 2.96809 0.6716 2.96809 1.5Z" fill="rgb(255,255,255)" fill-rule="nonzero" transform="matrix(1.80411e-16,-1,1,1.80411e-16,20,93)" />
	<path id="Vector" d="M2.9681 1.5C2.9681 2.3284 2.3037 3 1.484 3C0.6644 3 0 2.3284 0 1.5C0 0.6716 0.6644 0 1.484 0C2.3037 0 2.9681 0.6716 2.9681 1.5Z" fill="rgb(255,255,255)" fill-rule="nonzero" transform="matrix(1.80411e-16,-1,1,1.80411e-16,20,80.1383)" />
	<path id="Vector" d="M2.9681 1.5C2.9681 2.3284 2.3037 3 1.484 3C0.664399 3 0 2.3284 0 1.5C0 0.6716 0.664399 0 1.484 0C2.3037 0 2.9681 0.6716 2.9681 1.5Z" fill="rgb(255,255,255)" fill-rule="nonzero" transform="matrix(1.80411e-16,-1,1,1.80411e-16,20,67.2766)" />
	<path id="Vector" d="M2.9681 1.5C2.9681 2.3284 2.3037 3 1.484 3C0.664401 3 0 2.3284 0 1.5C0 0.6716 0.664401 0 1.484 0C2.3037 0 2.9681 0.6716 2.9681 1.5Z" fill="rgb(255,255,255)" fill-rule="nonzero" transform="matrix(1.80411e-16,-1,1,1.80411e-16,20,54.4149)" />
	<path id="Vector" d="M2.9681 1.5C2.9681 2.3284 2.3037 3 1.4841 3C0.6644 3 0 2.3284 0 1.5C0 0.6716 0.6644 0 1.4841 0C2.3037 0 2.9681 0.6716 2.9681 1.5Z" fill="rgb(255,255,255)" fill-rule="nonzero" transform="matrix(1.80411e-16,-1,1,1.80411e-16,20,41.5532)" />
	<path id="Vector" d="M2.9681 1.5C2.9681 2.3284 2.3037 3 1.4841 3C0.6644 3 0 2.3284 0 1.5C0 0.6716 0.6644 0 1.4841 0C2.3037 0 2.9681 0.6716 2.9681 1.5Z" fill="rgb(255,255,255)" fill-rule="nonzero" transform="matrix(1.80411e-16,-1,1,1.80411e-16,20,28.6915)" />
	<path id="Vector" d="M2.9681 1.5C2.9681 2.3284 2.3037 3 1.4841 3C0.6644 3 0 2.3284 0 1.5C0 0.6716 0.6644 0 1.4841 0C2.3037 0 2.9681 0.6716 2.9681 1.5Z" fill="rgb(255,255,255)" fill-rule="nonzero" transform="matrix(1.80411e-16,-1,1,1.80411e-16,20,15.8298)" />
	<path id="Vector" d="M2.9681 1.5C2.9681 2.3284 2.3037 3 1.4841 3C0.6644 3 0 2.3284 0 1.5C0 0.6716 0.6644 0 1.4841 0C2.3037 0 2.9681 0.6716 2.9681 1.5Z" fill="rgb(255,255,255)" fill-rule="nonzero" transform="matrix(1.80411e-16,-1,1,1.80411e-16,20,2.96814)" />
	<path id="Vector" d="M2.96809 1.5C2.96809 2.3284 2.30366 3 1.48404 3C0.664428 3 0 2.3284 0 1.5C0 0.6716 0.664428 0 1.48404 0C2.30366 0 2.96809 0.6716 2.96809 1.5Z" fill="rgb(255,255,255)" fill-rule="nonzero" transform="matrix(1.80411e-16,-1,1,1.80411e-16,30,93)" />
	<path id="Vector" d="M2.9681 1.5C2.9681 2.3284 2.3037 3 1.484 3C0.6644 3 0 2.3284 0 1.5C0 0.6716 0.6644 0 1.484 0C2.3037 0 2.9681 0.6716 2.9681 1.5Z" fill="rgb(255,255,255)" fill-rule="nonzero" transform="matrix(1.80411e-16,-1,1,1.80411e-16,30,80.1383)" />
	<path id="Vector" d="M2.9681 1.5C2.9681 2.3284 2.3037 3 1.484 3C0.664399 3 0 2.3284 0 1.5C0 0.6716 0.664399 0 1.484 0C2.3037 0 2.9681 0.6716 2.9681 1.5Z" fill="rgb(255,255,255)" fill-rule="nonzero" transform="matrix(1.80411e-16,-1,1,1.80411e-16,30,67.2766)" />
	<path id="Vector" d="M2.9681 1.5C2.9681 2.3284 2.3037 3 1.484 3C0.664401 3 0 2.3284 0 1.5C0 0.6716 0.664401 0 1.484 0C2.3037 0 2.9681 0.6716 2.9681 1.5Z" fill="rgb(255,255,255)" fill-rule="nonzero" transform="matrix(1.80411e-16,-1,1,1.80411e-16,30,54.4149)" />
	<path id="Vector" d="M2.9681 1.5C2.9681 2.3284 2.3037 3 1.4841 3C0.6644 3 0 2.3284 0 1.5C0 0.6716 0.6644 0 1.4841 0C2.3037 0 2.9681 0.6716 2.9681 1.5Z" fill="rgb(255,255,255)" fill-rule="nonzero" transform="matrix(1.80411e-16,-1,1,1.80411e-16,30,41.5532)" />
	<path id="Vector" d="M2.9681 1.5C2.9681 2.3284 2.3037 3 1.4841 3C0.6644 3 0 2.3284 0 1.5C0 0.6716 0.6644 0 1.4841 0C2.3037 0 2.9681 0.6716 2.9681 1.5Z" fill="rgb(255,255,255)" fill-rule="nonzero" transform="matrix(1.80411e-16,-1,1,1.80411e-16,30,28.6915)" />
	<path id="Vector" d="M2.9681 1.5C2.9681 2.3284 2.3037 3 1.4841 3C0.6644 3 0 2.3284 0 1.5C0 0.6716 0.6644 0 1.4841 0C2.3037 0 2.9681 0.6716 2.9681 1.5Z" fill="rgb(255,255,255)" fill-rule="nonzero" transform="matrix(1.80411e-16,-1,1,1.80411e-16,30,15.8298)" />
	<path id="Vector" d="M2.9681 1.5C2.9681 2.3284 2.3037 3 1.4841 3C0.6644 3 0 2.3284 0 1.5C0 0.6716 0.6644 0 1.4841 0C2.3037 0 2.9681 0.6716 2.9681 1.5Z" fill="rgb(255,255,255)" fill-rule="nonzero" transform="matrix(1.80411e-16,-1,1,1.80411e-16,30,2.96814)" />
	<path id="Vector" d="M2.96809 1.5C2.96809 2.3284 2.30366 3 1.48404 3C0.664428 3 0 2.3284 0 1.5C0 0.6716 0.664428 0 1.48404 0C2.30366 0 2.96809 0.6716 2.96809 1.5Z" fill="rgb(255,255,255)" fill-rule="nonzero" transform="matrix(1.80411e-16,-1,1,1.80411e-16,40,93)" />
	<path id="Vector" d="M2.9681 1.5C2.9681 2.3284 2.3037 3 1.484 3C0.6644 3 0 2.3284 0 1.5C0 0.6716 0.6644 0 1.484 0C2.3037 0 2.9681 0.6716 2.9681 1.5Z" fill="rgb(255,255,255)" fill-rule="nonzero" transform="matrix(1.80411e-16,-1,1,1.80411e-16,40,80.1383)" />
	<path id="Vector" d="M2.9681 1.5C2.9681 2.3284 2.3037 3 1.484 3C0.664399 3 0 2.3284 0 1.5C0 0.6716 0.664399 0 1.484 0C2.3037 0 2.9681 0.6716 2.9681 1.5Z" fill="rgb(255,255,255)" fill-rule="nonzero" transform="matrix(1.80411e-16,-1,1,1.80411e-16,40,67.2766)" />
	<path id="Vector" d="M2.9681 1.5C2.9681 2.3284 2.3037 3 1.484 3C0.664401 3 0 2.3284 0 1.5C0 0.6716 0.664401 0 1.484 0C2.3037 0 2.9681 0.6716 2.9681 1.5Z" fill="rgb(255,255,255)" fill-rule="nonzero" transform="matrix(1.80411e-16,-1,1,1.80411e-16,40,54.4149)" />
	<path id="Vector" d="M2.9681 1.5C2.9681 2.3284 2.3037 3 1.4841 3C0.6644 3 0 2.3284 0 1.5C0 0.6716 0.6644 0 1.4841 0C2.3037 0 2.9681 0.6716 2.9681 1.5Z" fill="rgb(255,255,255)" fill-rule="nonzero" transform="matrix(1.80411e-16,-1,1,1.80411e-16,40,41.5532)" />
	<path id="Vector" d="M2.9681 1.5C2.9681 2.3284 2.3037 3 1.4841 3C0.6644 3 0 2.3284 0 1.5C0 0.6716 0.6644 0 1.4841 0C2.3037 0 2.9681 0.6716 2.9681 1.5Z" fill="rgb(255,255,255)" fill-rule="nonzero" transform="matrix(1.80411e-16,-1,1,1.80411e-16,40,28.6915)" />
	<path id="Vector" d="M2.9681 1.5C2.9681 2.3284 2.3037 3 1.4841 3C0.6644 3 0 2.3284 0 1.5C0 0.6716 0.6644 0 1.4841 0C2.3037 0 2.9681 0.6716 2.9681 1.5Z" fill="rgb(255,255,255)" fill-rule="nonzero" transform="matrix(1.80411e-16,-1,1,1.80411e-16,40,15.8298)" />
	<path id="Vector" d="M2.9681 1.5C2.9681 2.3284 2.3037 3 1.4841 3C0.6644 3 0 2.3284 0 1.5C0 0.6716 0.6644 0 1.4841 0C2.3037 0 2.9681 0.6716 2.9681 1.5Z" fill="rgb(255,255,255)" fill-rule="nonzero" transform="matrix(1.80411e-16,-1,1,1.80411e-16,40,2.96814)" />
	<path id="Vector" d="M2.96809 1.5C2.96809 2.3284 2.30366 3 1.48404 3C0.664428 3 0 2.3284 0 1.5C0 0.6716 0.664428 0 1.48404 0C2.30366 0 2.96809 0.6716 2.96809 1.5Z" fill="rgb(255,255,255)" fill-rule="nonzero" transform="matrix(1.80411e-16,-1,1,1.80411e-16,50,93)" />
	<path id="Vector" d="M2.9681 1.5C2.9681 2.3284 2.3037 3 1.484 3C0.6644 3 0 2.3284 0 1.5C0 0.6716 0.6644 0 1.484 0C2.3037 0 2.9681 0.6716 2.9681 1.5Z" fill="rgb(255,255,255)" fill-rule="nonzero" transform="matrix(1.80411e-16,-1,1,1.80411e-16,50,80.1383)" />
	<path id="Vector" d="M2.9681 1.5C2.9681 2.3284 2.3037 3 1.484 3C0.664399 3 0 2.3284 0 1.5C0 0.6716 0.664399 0 1.484 0C2.3037 0 2.9681 0.6716 2.9681 1.5Z" fill="rgb(255,255,255)" fill-rule="nonzero" transform="matrix(1.80411e-16,-1,1,1.80411e-16,50,67.2766)" />
	<path id="Vector" d="M2.9681 1.5C2.9681 2.3284 2.3037 3 1.484 3C0.664401 3 0 2.3284 0 1.5C0 0.6716 0.664401 0 1.484 0C2.3037 0 2.9681 0.6716 2.9681 1.5Z" fill="rgb(255,255,255)" fill-rule="nonzero" transform="matrix(1.80411e-16,-1,1,1.80411e-16,50,54.4149)" />
	<path id="Vector" d="M2.9681 1.5C2.9681 2.3284 2.3037 3 1.4841 3C0.6644 3 0 2.3284 0 1.5C0 0.6716 0.6644 0 1.4841 0C2.3037 0 2.9681 0.6716 2.9681 1.5Z" fill="rgb(255,255,255)" fill-rule="nonzero" transform="matrix(1.80411e-16,-1,1,1.80411e-16,50,41.5532)" />
	<path id="Vector" d="M2.9681 1.5C2.9681 2.3284 2.3037 3 1.4841 3C0.6644 3 0 2.3284 0 1.5C0 0.6716 0.6644 0 1.4841 0C2.3037 0 2.9681 0.6716 2.9681 1.5Z" fill="rgb(255,255,255)" fill-rule="nonzero" transform="matrix(1.80411e-16,-1,1,1.80411e-16,50,28.6915)" />
	<path id="Vector" d="M2.9681 1.5C2.9681 2.3284 2.3037 3 1.4841 3C0.6644 3 0 2.3284 0 1.5C0 0.6716 0.6644 0 1.4841 0C2.3037 0 2.9681 0.6716 2.9681 1.5Z" fill="rgb(255,255,255)" fill-rule="nonzero" transform="matrix(1.80411e-16,-1,1,1.80411e-16,50,15.8298)" />
	<path id="Vector" d="M2.9681 1.5C2.9681 2.3284 2.3037 3 1.4841 3C0.6644 3 0 2.3284 0 1.5C0 0.6716 0.6644 0 1.4841 0C2.3037 0 2.9681 0.6716 2.9681 1.5Z" fill="rgb(255,255,255)" fill-rule="nonzero" transform="matrix(1.80411e-16,-1,1,1.80411e-16,50,2.96814)" />
	<path id="Vector" d="M2.96809 1.5C2.96809 2.3284 2.30366 3 1.48404 3C0.664428 3 0 2.3284 0 1.5C0 0.6716 0.664428 0 1.48404 0C2.30366 0 2.96809 0.6716 2.96809 1.5Z" fill="rgb(255,255,255)" fill-rule="nonzero" transform="matrix(1.80411e-16,-1,1,1.80411e-16,60,93)" />
	<path id="Vector" d="M2.9681 1.5C2.9681 2.3284 2.3037 3 1.484 3C0.6644 3 0 2.3284 0 1.5C0 0.6716 0.6644 0 1.484 0C2.3037 0 2.9681 0.6716 2.9681 1.5Z" fill="rgb(255,255,255)" fill-rule="nonzero" transform="matrix(1.80411e-16,-1,1,1.80411e-16,60,80.1383)" />
	<path id="Vector" d="M2.9681 1.5C2.9681 2.3284 2.3037 3 1.484 3C0.664399 3 0 2.3284 0 1.5C0 0.6716 0.664399 0 1.484 0C2.3037 0 2.9681 0.6716 2.9681 1.5Z" fill="rgb(255,255,255)" fill-rule="nonzero" transform="matrix(1.80411e-16,-1,1,1.80411e-16,60,67.2766)" />
	<path id="Vector" d="M2.9681 1.5C2.9681 2.3284 2.3037 3 1.484 3C0.664401 3 0 2.3284 0 1.5C0 0.6716 0.664401 0 1.484 0C2.3037 0 2.9681 0.6716 2.9681 1.5Z" fill="rgb(255,255,255)" fill-rule="nonzero" transform="matrix(1.80411e-16,-1,1,1.80411e-16,60,54.4149)" />
	<path id="Vector" d="M2.9681 1.5C2.9681 2.3284 2.3037 3 1.4841 3C0.6644 3 0 2.3284 0 1.5C0 0.6716 0.6644 0 1.4841 0C2.3037 0 2.9681 0.6716 2.9681 1.5Z" fill="rgb(255,255,255)" fill-rule="nonzero" transform="matrix(1.80411e-16,-1,1,1.80411e-16,60,41.5532)" />
	<path id="Vector" d="M2.9681 1.5C2.9681 2.3284 2.3037 3 1.4841 3C0.6644 3 0 2.3284 0 1.5C0 0.6716 0.6644 0 1.4841 0C2.3037 0 2.9681 0.6716 2.9681 1.5Z" fill="rgb(255,255,255)" fill-rule="nonzero" transform="matrix(1.80411e-16,-1,1,1.80411e-16,60,28.6915)" />
	<path id="Vector" d="M2.9681 1.5C2.9681 2.3284 2.3037 3 1.4841 3C0.6644 3 0 2.3284 0 1.5C0 0.6716 0.6644 0 1.4841 0C2.3037 0 2.9681 0.6716 2.9681 1.5Z" fill="rgb(255,255,255)" fill-rule="nonzero" transform="matrix(1.80411e-16,-1,1,1.80411e-16,60,15.8298)" />
	<path id="Vector" d="M2.9681 1.5C2.9681 2.3284 2.3037 3 1.4841 3C0.6644 3 0 2.3284 0 1.5C0 0.6716 0.6644 0 1.4841 0C2.3037 0 2.9681 0.6716 2.9681 1.5Z" fill="rgb(255,255,255)" fill-rule="nonzero" transform="matrix(1.80411e-16,-1,1,1.80411e-16,60,2.96814)" />
	<path id="Vector" d="M2.96809 1.5C2.96809 2.3284 2.30366 3 1.48404 3C0.664428 3 0 2.3284 0 1.5C0 0.6716 0.664428 0 1.48404 0C2.30366 0 2.96809 0.6716 2.96809 1.5Z" fill="rgb(255,255,255)" fill-rule="nonzero" transform="matrix(1.80411e-16,-1,1,1.80411e-16,70,93)" />
	<path id="Vector" d="M2.9681 1.5C2.9681 2.3284 2.3037 3 1.484 3C0.6644 3 0 2.3284 0 1.5C0 0.6716 0.6644 0 1.484 0C2.3037 0 2.9681 0.6716 2.9681 1.5Z" fill="rgb(255,255,255)" fill-rule="nonzero" transform="matrix(1.80411e-16,-1,1,1.80411e-16,70,80.1383)" />
	<path id="Vector" d="M2.9681 1.5C2.9681 2.3284 2.3037 3 1.484 3C0.664399 3 0 2.3284 0 1.5C0 0.6716 0.664399 0 1.484 0C2.3037 0 2.9681 0.6716 2.9681 1.5Z" fill="rgb(255,255,255)" fill-rule="nonzero" transform="matrix(1.80411e-16,-1,1,1.80411e-16,70,67.2766)" />
	<path id="Vector" d="M2.9681 1.5C2.9681 2.3284 2.3037 3 1.484 3C0.664401 3 0 2.3284 0 1.5C0 0.6716 0.664401 0 1.484 0C2.3037 0 2.9681 0.6716 2.9681 1.5Z" fill="rgb(255,255,255)" fill-rule="nonzero" transform="matrix(1.80411e-16,-1,1,1.80411e-16,70,54.4149)" />
	<path id="Vector" d="M2.9681 1.5C2.9681 2.3284 2.3037 3 1.4841 3C0.6644 3 0 2.3284 0 1.5C0 0.6716 0.6644 0 1.4841 0C2.3037 0 2.9681 0.6716 2.9681 1.5Z" fill="rgb(255,255,255)" fill-rule="nonzero" transform="matrix(1.80411e-16,-1,1,1.80411e-16,70,41.5532)" />
	<path id="Vector" d="M2.9681 1.5C2.9681 2.3284 2.3037 3 1.4841 3C0.6644 3 0 2.3284 0 1.5C0 0.6716 0.6644 0 1.4841 0C2.3037 0 2.9681 0.6716 2.9681 1.5Z" fill="rgb(255,255,255)" fill-rule="nonzero" transform="matrix(1.80411e-16,-1,1,1.80411e-16,70,28.6915)" />
	<path id="Vector" d="M2.9681 1.5C2.9681 2.3284 2.3037 3 1.4841 3C0.6644 3 0 2.3284 0 1.5C0 0.6716 0.6644 0 1.4841 0C2.3037 0 2.9681 0.6716 2.9681 1.5Z" fill="rgb(255,255,255)" fill-rule="nonzero" transform="matrix(1.80411e-16,-1,1,1.80411e-16,70,15.8298)" />
	<path id="Vector" d="M2.9681 1.5C2.9681 2.3284 2.3037 3 1.4841 3C0.6644 3 0 2.3284 0 1.5C0 0.6716 0.6644 0 1.4841 0C2.3037 0 2.9681 0.6716 2.9681 1.5Z" fill="rgb(255,255,255)" fill-rule="nonzero" transform="matrix(1.80411e-16,-1,1,1.80411e-16,70,2.96814)" />
</svg>
