<svg viewBox="0 0 35 30.7456" xmlns="http://www.w3.org/2000/svg" xmlns:xlink="http://www.w3.org/1999/xlink" width="35.000000" height="30.745605" fill="none" customFrame="#000000">
	<path id="Vector" d="M0.533203 30.6019C0.239258 30.4515 0 30.0482 0 29.7201C0 29.3783 0.239258 28.9887 0.546875 28.8314C0.799805 28.7015 0.943359 28.6947 3.05566 28.6947L5.30469 28.6947L7.77246 20.0404L10.2471 11.3861L10.0488 10.9896C9.70703 10.3129 9.55664 9.77967 9.55664 9.21229C9.55664 7.79042 10.4795 6.60096 11.8604 6.23866C12.1543 6.16346 12.6465 6.13612 13.6719 6.12928C14.9365 6.12245 15.0391 6.11561 14.7314 6.04042C14.1572 5.89686 13.7266 5.65077 13.2891 5.21327C12.0791 4.01014 12.0791 2.11659 13.2959 0.906627C15.0596 -0.863881 18.0469 0.0999861 18.4707 2.5746C18.6348 3.53846 18.3203 4.49549 17.6025 5.2201C17.1719 5.65077 16.625 5.96522 16.1123 6.06776C15.9482 6.0951 17.9033 6.12245 20.6104 6.12245C24.5752 6.12245 25.334 6.10878 25.0537 6.04042C24.4795 5.89686 24.0488 5.65077 23.6113 5.21327C22.4014 4.01014 22.4014 2.10975 23.6113 0.906627C25.3887 -0.863881 28.3691 0.0999861 28.793 2.5746C29.0596 4.12635 28.0342 5.66444 26.4893 6.04042C26.1953 6.11561 26.4141 6.12245 28.1162 6.12928C29.9482 6.13612 30.1055 6.14295 30.3516 6.27284C30.6592 6.43006 30.8984 6.81971 30.8984 7.16151C30.8984 7.50331 30.6592 7.89295 30.3516 8.05018C30.085 8.1869 29.9688 8.1869 21.2461 8.1869C12.9678 8.1869 12.3936 8.19374 12.168 8.30995C11.6143 8.58338 11.4775 9.18495 11.8057 9.8617L11.9902 10.2377L21.0342 10.2377C30.0029 10.2377 30.085 10.2377 30.3584 10.3744C30.5498 10.4769 30.6729 10.6 30.7617 10.8051C30.9463 11.1879 35 25.4271 35 25.6664C35 25.9467 34.7266 26.3705 34.4531 26.514C34.2275 26.6371 33.7422 26.6439 21.1162 26.6439L8.01855 26.6439L7.56055 28.2709C6.99316 30.2465 6.9248 30.4174 6.53516 30.6019C6.25488 30.7387 6.13867 30.7455 3.51367 30.7455C0.936523 30.7387 0.772461 30.7318 0.533203 30.6019ZM32.5801 24.4769C32.5596 24.4086 31.7734 21.64 30.8232 18.3246L29.1006 12.2885L20.6104 12.2885L12.1201 12.2885L10.3975 18.3246C9.44727 21.64 8.66113 24.4086 8.64062 24.4769C8.60645 24.5863 9.20801 24.5931 20.6104 24.5931C32.0127 24.5931 32.6143 24.5863 32.5801 24.4769ZM15.9277 3.94862C16.2354 3.79139 16.4746 3.40174 16.4746 3.05311C16.4746 2.54725 15.9551 2.03456 15.4424 2.03456C15.1279 2.03456 14.7041 2.30116 14.5537 2.5951C14.3008 3.08729 14.458 3.62733 14.9434 3.92128C15.2715 4.11952 15.5723 4.12635 15.9277 3.94862ZM26.25 3.94862C26.5576 3.79139 26.7969 3.40174 26.7969 3.05311C26.7969 2.54725 26.2773 2.03456 25.7646 2.03456C25.4502 2.03456 25.0264 2.30116 24.876 2.5951C24.623 3.08729 24.7803 3.62733 25.2656 3.92128C25.5938 4.11952 25.8945 4.12635 26.25 3.94862Z" fill="rgb(255,255,255)" fill-rule="nonzero" transform="matrix(1,0,0,-1,0,30.7456)" />
</svg>
